# xmcd CD database file
#
# Track frame offsets:
#	150
#	62313
#	116268
#	139522
#	204174
#
# Disc length: 3106 seconds
#
# Revision: 0
# Processed by: cddbd v1.4PL0 Copyright (c) Steve Scherf et al.
# Submitted via: CDex 1.51
#
DISCID=340c2005
DTITLE=roland sante - the queen of heaven
DYEAR=2000
DGENRE=New Age
TTITLE0=love of saint mary
TTITLE1=rosa mystika
TTITLE2=evening prayer
TTITLE3=message of the mother god
TTITLE4=the queen of heaven
EXTD=YEAR: 2000
EXTT0=
EXTT1=
EXTT2=
EXTT3=
EXTT4=
PLAYORDER=
